<?xml version="1.0" encoding="UTF-8" standalone="no"?><!DOCTYPE svg PUBLIC "-//W3C//DTD SVG 1.1//EN" "http://www.w3.org/Graphics/SVG/1.1/DTD/svg11.dtd"><svg width="100%" height="100%" viewBox="0 0 1440 810" version="1.1" xmlns="http://www.w3.org/2000/svg" xmlns:xlink="http://www.w3.org/1999/xlink" xml:space="preserve" xmlns:serif="http://www.serif.com/" style="fill-rule:evenodd;clip-rule:evenodd;stroke-linejoin:round;stroke-miterlimit:2;"><path id="Wordmark" d="M834.741,558.075c-2.615,2.965 -5.743,6.344 -9.385,10.138c-5.556,5.788 -11.42,10.494 -17.593,14.121c-6.173,3.627 -11.806,5.44 -16.899,5.44c-3.241,0 -6.25,-0.694 -9.028,-2.083c-3.395,-2.007 -5.517,-5.865 -6.366,-11.575c-0.848,-5.71 -0.501,-12.346 1.042,-19.907c1.177,-5.767 6.143,-23.898 6.692,-27.524c0.143,-0.945 0.224,-1.852 0.16,-2.688c-0.034,-0.432 -0.005,-0.861 -0.289,-1.139c-0.575,-0.563 -1.578,-0.58 -2.974,-0.599c-4.698,-0.065 -11.149,2.126 -17.242,4.611c-5.808,2.37 -11.287,5.103 -14.825,6.958l0.005,0.01c6.019,11.883 8.18,24.46 6.482,37.732c-3.086,24.229 -17.439,49.461 -43.056,75.696c-25.001,25.463 -51.004,43.211 -78.011,53.242c-25.155,9.259 -41.667,7.561 -49.538,-5.093c-12.346,-19.908 -1.62,-47.455 32.177,-82.641c29.63,-30.864 68.365,-58.565 116.205,-83.103c-4.475,-4.63 -9.915,-8.256 -16.319,-10.88c-6.405,-2.623 -13.542,-4.166 -21.413,-4.629c-7.87,-0.463 -14.969,-0.541 -21.297,-0.232c-6.327,0.309 -13.657,1.003 -21.991,2.083c-4.629,0.463 -10.648,1.274 -18.056,2.431c-7.407,1.157 -14.39,2.199 -20.949,3.125c-6.559,0.926 -12.616,1.621 -18.172,2.083c-5.247,0.772 -11.42,0.965 -18.518,0.579c-7.099,-0.386 -12.964,-1.813 -17.593,-4.282c-4.784,-2.778 -8.102,-6.328 -9.954,-10.649c-1.852,-4.321 -2.277,-8.989 -1.273,-14.005c1.003,-5.015 2.43,-9.683 4.282,-14.004c1.852,-4.321 4.09,-8.565 6.713,-12.732c16.358,-25.464 42.285,-49.307 77.779,-71.529c15.741,-9.877 30.942,-17.632 45.603,-23.265c14.661,-5.632 29.09,-7.831 43.288,-6.597c17.13,1.543 27.547,8.025 31.25,19.445c0.772,2.932 1.274,5.903 1.505,8.912c0.232,3.009 -0.077,6.289 -0.926,9.838c-0.849,3.55 -1.582,6.52 -2.199,8.912c-0.617,2.392 -1.852,5.633 -3.704,9.723c-1.852,4.089 -3.125,6.829 -3.819,8.218c-0.695,1.389 -2.045,4.166 -4.051,8.333c-1.081,2.006 -2.662,3.087 -4.746,3.241c-2.083,0.154 -3.742,-0.502 -4.977,-1.968c-1.234,-1.466 -1.389,-3.202 -0.463,-5.208c0.463,-0.926 1.158,-2.276 2.084,-4.051c0.926,-1.775 1.697,-3.28 2.315,-4.514c0.617,-1.235 1.388,-2.817 2.314,-4.746c0.926,-1.929 1.698,-3.626 2.315,-5.092c0.618,-1.466 1.312,-3.125 2.084,-4.977c0.771,-1.852 1.35,-3.588 1.736,-5.209c0.386,-1.62 0.733,-3.279 1.041,-4.977c0.309,-1.697 0.425,-3.356 0.348,-4.977c-0.077,-1.62 -0.27,-3.202 -0.579,-4.745c-2.315,-10.185 -11.266,-15.355 -26.852,-15.51c-15.433,-0.308 -34.26,5.093 -56.483,16.204c-19.753,9.877 -38.234,21.837 -55.441,35.881c-17.207,14.043 -30.98,29.398 -41.32,46.065c-9.877,15.896 -11.497,26.93 -4.861,33.103c1.852,1.697 4.205,3.009 7.06,3.935c2.855,0.926 6.289,1.35 10.301,1.273c4.013,-0.077 7.215,-0.193 9.607,-0.347c2.392,-0.154 5.941,-0.617 10.648,-1.389c4.707,-0.771 7.369,-1.157 7.987,-1.157c4.938,-0.618 12.037,-1.736 21.296,-3.357c9.26,-1.62 17.169,-2.855 23.728,-3.704c6.558,-0.848 13.927,-1.62 22.106,-2.314c8.18,-0.695 16.012,-0.579 23.496,0.347c7.485,0.926 14.545,2.546 21.181,4.861c9.568,3.395 17.516,9.182 23.843,17.361l0.052,0.067c4.745,-2.509 13.44,-6.865 21.889,-9.836c5.842,-2.054 11.595,-3.409 16.056,-3.348c5.318,0.073 8.614,1.789 10.7,4.006c2.226,2.368 3.271,5.569 3.234,9.31c-0.048,4.834 -4.512,19.636 -5.055,21.908c-2.083,8.72 -3.202,15.471 -3.356,20.255c-0.155,4.784 0.308,7.871 1.388,9.26c5.093,2.778 12.732,-0.193 22.918,-8.912c10.185,-8.72 19.522,-18.944 28.009,-30.672c0.411,-0.548 0.875,-0.997 1.392,-1.347c2.923,-13.196 6.549,-28.413 10.877,-45.645c0.309,-1.389 1.119,-2.469 2.431,-3.241c1.311,-0.771 2.662,-0.964 4.051,-0.578c1.389,0.385 2.469,1.196 3.24,2.43c0.772,1.235 1.004,2.624 0.695,4.167c-5.401,21.76 -10.031,41.976 -13.889,60.649c6.79,-13.272 14.39,-23.573 22.801,-30.903c8.411,-7.331 17.323,-10.378 26.737,-9.144c1.543,0.154 2.778,0.81 3.703,1.968c0.926,1.157 1.312,2.469 1.158,3.935c-0.154,1.466 -0.849,2.662 -2.083,3.588c-1.235,0.926 -2.547,1.312 -3.936,1.157c-7.099,-0.925 -14.236,2.2 -21.412,9.376c-7.176,7.176 -13.426,16.358 -18.75,27.546c-5.325,11.189 -9.916,23.496 -13.774,36.922c-0.617,2.47 -2.16,3.781 -4.63,3.936c-0.154,0.154 -0.308,0.231 -0.463,0.231c-2.314,0 -3.935,-1.003 -4.861,-3.009c-2.099,-4.285 -0.976,-17.814 3.367,-40.579Zm-91.331,-5.95c-1.081,-4.938 -2.701,-9.491 -4.862,-13.657c-62.192,31.173 -106.637,65.896 -133.335,104.168c-1.852,2.624 -3.627,5.324 -5.324,8.102c-1.698,2.778 -3.434,6.212 -5.209,10.301c-1.775,4.09 -3.086,7.909 -3.935,11.459c-0.849,3.549 -0.965,7.099 -0.347,10.648c0.617,3.55 2.16,6.482 4.629,8.797c5.402,5.247 16.359,4.938 32.871,-0.926c27.933,-9.877 54.477,-28.242 79.631,-55.094c28.859,-31.019 40.819,-58.952 35.881,-83.798Zm239.852,-0.944c2.183,-10.569 4.685,-21.597 7.505,-33.084c0.154,-0.463 0.308,-1.003 0.463,-1.621c4.629,-18.364 9.452,-35.34 14.467,-50.926c5.016,-15.587 10.919,-30.672 17.709,-45.256c6.79,-14.583 13.581,-25.193 20.371,-31.829c6.636,-6.482 13.349,-9.645 20.139,-9.491c4.167,-0 7.099,1.697 8.797,5.093c2.16,4.321 1.041,12.114 -3.357,23.38c-4.398,11.265 -11.073,24.344 -20.023,39.236c-8.951,14.893 -17.169,28.126 -24.654,39.7c-7.484,11.575 -15.316,23.072 -23.495,34.492c-1.852,7.562 -3.627,15.201 -5.325,22.917c8.642,-10.031 19.445,-17.516 32.408,-22.454c2.624,-1.081 5.325,-2.007 8.102,-2.778c1.544,-0.309 2.932,-0.116 4.167,0.579c1.235,0.694 2.083,1.736 2.546,3.125c0.155,1.08 0.155,2.044 0,2.893c-0.154,0.849 -0.578,1.621 -1.273,2.315c-0.694,0.694 -1.504,1.196 -2.43,1.505c-2.007,0.463 -3.936,1.08 -5.787,1.852c-17.902,6.481 -31.02,19.29 -39.353,38.426c2.623,4.013 5.71,7.138 9.259,9.375c3.55,2.238 7.562,3.588 12.038,4.051c10.339,1.235 21.412,-1.311 33.218,-7.639c11.729,-6.286 20.906,-12.8 27.533,-19.544c0.094,-1.17 0.214,-2.371 0.361,-3.604c0.154,-1.081 0.231,-1.775 0.231,-2.084c0.463,-4.475 2.084,-9.529 4.862,-15.162c2.777,-5.633 6.635,-10.687 11.574,-15.162c4.938,-4.476 10.108,-6.713 15.509,-6.713c3.704,-0 6.791,1.234 9.26,3.703c12.972,4.936 23.368,4.911 31.186,-0.074c1.965,-8.302 4.148,-17.231 6.546,-26.778c0.309,-1.389 1.119,-2.469 2.431,-3.241c1.311,-0.771 2.662,-0.964 4.051,-0.578c1.388,0.385 2.469,1.196 3.24,2.43c0.772,1.235 1.003,2.624 0.695,4.167c-5.402,21.76 -10.031,41.976 -13.889,60.649c6.79,-13.272 14.39,-23.573 22.801,-30.903c8.411,-7.331 17.323,-10.378 26.737,-9.144c1.543,0.154 2.777,0.81 3.703,1.968c0.926,1.157 1.312,2.469 1.158,3.935c-0.155,1.466 -0.849,2.662 -2.084,3.588c-1.234,0.926 -2.546,1.312 -3.935,1.157c-7.099,-0.925 -14.236,2.2 -21.412,9.376c-7.176,7.176 -13.426,16.358 -18.751,27.546c-5.324,11.189 -9.915,23.496 -13.773,36.922c-0.617,2.47 -2.161,3.781 -4.63,3.936c-0.154,0.154 -0.308,0.231 -0.463,0.231c-2.315,0 -3.935,-1.003 -4.861,-3.009c-2.861,-5.841 0.263,-28.853 9.371,-69.035c-6.637,1.82 -14.159,1.761 -22.566,-0.179c0.772,5.401 0.541,12.963 -0.694,22.685c-0.617,4.476 -2.662,10.263 -6.134,17.362c-3.473,7.099 -7.755,12.191 -12.848,15.278c-2.932,1.852 -6.018,2.778 -9.259,2.778c-1.852,-0 -3.627,-0.309 -5.324,-0.926c-6.971,-2.39 -11.211,-8.058 -12.72,-17.003c-6.828,5.662 -15.011,10.905 -24.55,15.729c-13.271,6.713 -25.849,9.453 -37.732,8.218c-9.722,-1.08 -17.901,-5.17 -24.537,-12.269c-2.007,6.945 -3.241,13.581 -3.704,19.908l-0,0.926c-0.463,3.55 -2.083,5.401 -4.861,5.556c-0.309,-0 -0.54,-0 -0.695,-0c-1.234,-0 -2.353,-0.386 -3.356,-1.158c-1.003,-0.771 -1.659,-1.852 -1.968,-3.24c-0.154,-1.081 -0.077,-3.01 0.232,-5.788c0.408,-5.305 1.715,-14.088 3.922,-26.347c-2.432,2.287 -4.863,4.356 -7.293,6.208c-3.241,2.469 -6.945,4.63 -11.112,6.482c-4.167,1.852 -8.102,2.778 -11.806,2.778c-3.703,-0 -7.098,-0.926 -10.185,-2.778c-4.63,-2.778 -7.022,-7.794 -7.176,-15.047c-10.34,12.655 -20.139,17.747 -29.399,15.278c-7.562,-2.16 -11.42,-7.484 -11.574,-15.972c-0.154,-6.019 1.968,-13.195 6.366,-21.528c4.398,-8.334 9.684,-15.741 15.857,-22.223c6.173,-6.482 11.728,-10.417 16.667,-11.806c4.321,-1.389 8.256,-1.003 11.805,1.158c2.007,1.234 3.781,3.086 5.325,5.555l-0,-0.463c0.771,-1.234 1.813,-2.122 3.125,-2.662c1.311,-0.54 2.623,-0.501 3.935,0.116c1.312,0.617 2.276,1.62 2.893,3.009c0.618,1.389 0.618,2.701 0,3.936c-2.16,5.401 -4.552,10.879 -7.176,16.435c-3.395,8.796 -5.594,16.358 -6.597,22.686c-1.003,6.327 -0.501,10.416 1.505,12.268c2.16,1.544 4.784,1.852 7.87,0.926c3.087,-0.926 6.096,-2.276 9.028,-4.051c2.932,-1.774 5.98,-4.089 9.144,-6.944c3.164,-2.855 5.826,-5.479 7.986,-7.871c1.759,-1.947 3.313,-3.766 4.663,-5.458Zm304.964,24.324c1.543,0 2.816,0.54 3.819,1.621c1.003,1.08 1.505,2.353 1.505,3.819c-0,1.466 -0.54,2.739 -1.62,3.82c-5.247,4.938 -10.572,7.407 -15.973,7.407c-2.623,0 -5.015,-0.771 -7.176,-2.315c-2.161,-1.389 -3.897,-3.819 -5.208,-7.291c-1.312,-3.473 -2.161,-6.675 -2.547,-9.607c-0.386,-2.932 -0.887,-7.253 -1.504,-12.963c-0.926,-10.186 -1.929,-16.204 -3.01,-18.056c-3.704,1.08 -13.04,10.725 -28.01,28.936c-5.401,6.635 -9.413,11.342 -12.037,14.12c-2.623,2.778 -4.861,4.591 -6.713,5.44c-1.852,0.849 -3.626,0.656 -5.324,-0.579c-1.698,-1.234 -2.469,-2.855 -2.315,-4.861c0.926,-9.568 6.405,-34.337 16.436,-74.307c0.463,-1.389 1.311,-2.469 2.546,-3.241c1.235,-0.771 2.585,-1.003 4.051,-0.694c1.466,0.309 2.585,1.119 3.356,2.431c0.772,1.311 1.004,2.662 0.695,4.051c-4.938,18.827 -9.337,37.5 -13.195,56.019c1.081,-1.389 2.469,-3.163 4.167,-5.324c10.185,-12.346 18.056,-21.065 23.612,-26.158c5.555,-5.093 10.494,-7.33 14.815,-6.713c2.16,0.309 3.973,1.157 5.44,2.546c1.466,1.389 2.584,3.627 3.356,6.713c0.772,3.087 1.35,5.788 1.736,8.102c0.386,2.315 0.81,5.865 1.273,10.649c1.235,13.426 2.701,20.756 4.399,21.991c0.926,0.617 2.392,0.424 4.398,-0.579c2.006,-1.003 3.781,-2.199 5.324,-3.588c0.926,-0.926 2.161,-1.389 3.704,-1.389Zm-176.161,-24.537c1.698,-13.118 1.543,-21.606 -0.463,-25.464c-1.389,-0.463 -2.7,-1.08 -3.935,-1.852c-4.321,0.772 -8.642,4.244 -12.963,10.417c-4.321,6.173 -6.636,11.729 -6.945,16.667c-0.154,0.463 -0.231,1.235 -0.231,2.315c-0.926,4.784 -1.042,9.607 -0.348,14.468c0.695,4.861 2.585,7.832 5.672,8.912c1.697,0.618 3.549,0.386 5.556,-0.694c2.16,-1.543 4.359,-4.09 6.597,-7.639c2.238,-3.55 3.935,-6.868 5.093,-9.954c1.157,-3.087 1.813,-5.479 1.967,-7.176Zm-172.355,-15.741c0.308,-0.772 0.694,-1.698 1.157,-2.778c-0.617,-0.772 -1.08,-1.62 -1.389,-2.546c-0.617,-3.55 -1.852,-5.865 -3.704,-6.945c-0.308,-0.309 -0.694,-0.463 -1.157,-0.463c-0.463,0 -1.003,0.077 -1.621,0.232c-5.71,1.697 -12.384,7.947 -20.023,18.75c-7.639,10.803 -11.381,19.676 -11.227,26.621c-0,2.932 1.234,4.784 3.704,5.555c4.475,1.235 9.838,-1.967 16.088,-9.606c6.25,-7.639 12.307,-17.246 18.172,-28.82Zm-461.303,-17.203c2.024,-1.371 3.867,-1.131 5.528,0.72c1.662,1.85 1.602,3.941 -0.18,6.272c-4.306,5.757 -8.184,12.783 -11.634,21.077c-3.45,8.294 -5.32,15.594 -5.609,21.901c-0.202,1.919 -1.147,3.393 -2.836,4.421c-1.69,1.028 -3.308,1.268 -4.857,0.72c-1.548,-0.549 -2.29,-1.783 -2.226,-3.702c0.627,-10.556 4.432,-22.414 11.414,-35.575c-4.564,1.782 -9.306,3.016 -14.225,3.701c-4.919,0.686 -9.685,0.892 -14.298,0.617c-4.612,-0.274 -8.899,-1.233 -12.858,-2.879c-3.96,-1.645 -7.057,-3.907 -9.291,-6.786c-3.251,-4.112 -4.844,-8.294 -4.78,-12.543c0.064,-4.25 1.227,-8.123 3.488,-11.619c2.262,-3.496 5.656,-7.197 10.184,-11.104c4.527,-3.907 8.831,-7.129 12.911,-9.665c4.08,-2.536 8.785,-5.312 14.115,-8.328c-6.129,-1.782 -11.143,-4.833 -15.043,-9.151c-3.9,-4.318 -6.021,-9.391 -6.365,-15.217c-0.343,-5.827 1.835,-11.961 6.536,-18.405c5.16,-6.717 11.848,-10.83 20.065,-12.338c8.218,-1.508 15.979,-0.822 23.286,2.057c7.307,2.878 12.819,6.991 16.537,12.338c0.968,1.508 0.93,3.084 -0.114,4.729c-1.044,1.645 -2.384,2.639 -4.021,2.982c-1.637,0.343 -3.089,-0.171 -4.355,-1.542c-3.582,-5.347 -9.481,-9.014 -17.699,-11.002c-8.217,-1.988 -15.58,-0.857 -22.087,3.393c-5.685,4.25 -8.627,8.5 -8.828,12.75c-0.201,4.25 1.041,8.088 3.727,11.515c2.686,3.428 6.414,5.998 11.184,7.712c4.77,1.713 9.353,2.159 13.748,1.336c2.29,-0.548 3.8,0.412 4.53,2.879c0.73,2.468 -0.042,4.319 -2.316,5.552c-1.08,0.686 -3.618,2.057 -7.614,4.113c-3.995,2.057 -7.555,3.976 -10.68,5.758c-3.124,1.782 -6.836,3.976 -11.133,6.58c-4.298,2.605 -7.802,5.176 -10.511,7.712c-2.709,2.536 -5.066,5.209 -7.069,8.019c-2.004,2.811 -2.842,5.621 -2.515,8.432c0.327,2.81 1.85,5.449 4.568,7.917c5.484,4.661 13.476,6.374 23.975,5.14c10.499,-1.233 19.007,-4.386 25.522,-9.459c0.484,-0.411 1.092,-0.754 1.826,-1.028Zm312.916,-19.573l3.242,-0.81c2.891,-0.723 4.651,-3.657 3.928,-6.548c-0.722,-2.891 -3.656,-4.651 -6.547,-3.928l-3.242,0.81c-2.891,0.723 -4.651,3.657 -3.928,6.548c0.722,2.891 3.656,4.651 6.547,3.928Zm260.093,-102.347c-13.889,13.735 -27.856,44.908 -41.899,93.52c10.185,-15.278 19.368,-29.746 27.547,-43.403c8.179,-13.658 14.738,-25.657 19.676,-35.997c4.938,-10.339 7.099,-17.129 6.482,-20.37c-3.704,0.154 -7.639,2.237 -11.806,6.25Zm-590.511,-118.258c0.446,-4.376 1.022,-8.523 1.728,-12.441c-0,-0.154 0.077,-0.232 0.231,-0.232c3.241,-15.741 7.408,-33.256 12.5,-52.547c-41.513,-2.006 -65.279,-0.154 -71.297,5.556c-0.926,0.926 -2.161,1.389 -3.704,1.389c-1.543,-0 -2.855,-0.54 -3.935,-1.621c-0.926,-1.08 -1.389,-2.353 -1.389,-3.819c-0,-1.466 0.54,-2.739 1.62,-3.82c8.334,-7.87 35.572,-10.648 81.715,-8.333c13.272,-47.223 25.309,-74.461 36.111,-81.715c3.241,-2.006 6.482,-2.662 9.723,-1.967c3.241,0.694 5.556,2.662 6.944,5.903c0.463,0.771 0.772,1.89 0.926,3.356c0.155,1.466 -0.038,4.244 -0.578,8.334c-0.54,4.089 -1.544,8.835 -3.01,14.236c-1.466,5.401 -4.051,12.809 -7.754,22.223c-3.704,9.413 -8.334,19.907 -13.89,31.482c4.939,0.308 10.109,0.694 15.51,1.157c6.636,0.617 12.732,0.849 18.287,0.695c5.556,-0.155 10.572,-0.579 15.047,-1.274c4.475,-0.694 8.372,-1.543 11.69,-2.546c3.318,-1.003 6.134,-2.045 8.449,-3.125c2.315,-1.08 4.09,-2.083 5.324,-3.009c1.235,-0.926 2.007,-1.775 2.315,-2.547c0.618,-1.234 1.621,-2.122 3.01,-2.662c1.388,-0.54 2.777,-0.54 4.166,0c1.389,0.54 2.354,1.466 2.894,2.778c0.54,1.312 0.501,2.662 -0.116,4.051c-2.315,5.864 -9.954,10.841 -22.917,14.931c-12.963,4.09 -29.399,5.286 -49.306,3.588c-6.636,-0.617 -13.118,-1.157 -19.445,-1.62c-8.025,16.358 -17.516,34.337 -28.473,53.936c-2.315,12.809 -3.009,25.849 -2.083,39.121c0.926,13.272 3.163,21.374 6.713,24.306c1.389,1.234 2.932,1.697 4.629,1.389c3.241,-0.309 6.714,-2.277 10.417,-5.903c3.704,-3.627 6.636,-6.983 8.797,-10.07c0.452,-0.723 1.023,-1.287 1.713,-1.693c0.201,-2.9 0.798,-5.999 1.791,-9.296c1.698,-5.632 4.051,-11.034 7.06,-16.204c3.01,-5.169 5.402,-9.105 7.177,-11.805c1.774,-2.701 3.433,-4.977 4.976,-6.829c6.173,-7.871 11.883,-10.88 17.13,-9.028c4.63,1.543 7.022,6.25 7.176,14.12c0,1.544 -0.501,2.855 -1.504,3.936c-1.003,1.08 -2.276,1.62 -3.82,1.62c-1.08,0 -2.006,-0.231 -2.778,-0.694c-0.771,-0.463 -1.427,-1.081 -1.967,-1.852c-0.54,-0.772 -0.81,-1.698 -0.81,-2.778c-0,-1.235 -0.078,-2.315 -0.232,-3.241c-1.697,1.235 -3.318,2.778 -4.861,4.63c-4.321,5.71 -8.642,12.77 -12.963,21.181c-4.321,8.41 -6.173,15.316 -5.556,20.718c0.309,2.778 1.466,4.861 3.472,6.25c2.47,2.006 5.942,2.392 10.417,1.157c4.476,-1.234 9.26,-3.318 14.352,-6.25c5.093,-2.932 10.379,-6.52 15.857,-10.764c5.479,-4.244 10.417,-8.372 14.815,-12.384c4.398,-4.013 8.064,-7.639 10.996,-10.88c0.391,-0.392 0.809,-0.718 1.251,-0.977c2.489,-10.142 5.313,-20.619 8.471,-31.431c5.093,-18.056 10.417,-34.762 15.973,-50.117c5.555,-15.355 10.957,-28.627 16.204,-39.815c5.247,-11.189 10.185,-19.715 14.815,-25.58c5.864,-7.561 11.651,-11.342 17.361,-11.342c5.247,-0 8.951,2.083 11.112,6.25c2.469,4.784 1.967,13.002 -1.505,24.653c-3.472,11.651 -8.295,23.766 -14.468,36.343c-6.173,12.578 -13.696,26.621 -22.57,42.131c-8.873,15.509 -16.05,27.662 -21.528,36.459c-5.479,8.796 -10.687,17.052 -15.625,24.769c-2.778,11.42 -4.939,21.566 -6.482,30.44c-1.543,8.874 -2.315,15.625 -2.315,20.255c3.395,-4.784 9.954,-16.436 19.677,-34.954c11.419,-22.069 19.946,-36.884 25.579,-44.446c5.633,-7.562 10.995,-10.339 16.088,-8.333c2.006,0.617 3.704,1.852 5.093,3.704c1.389,1.852 2.469,3.742 3.24,5.671c0.772,1.929 1.505,4.746 2.2,8.449c0.694,3.704 1.157,6.752 1.388,9.144c0.232,2.392 0.579,5.98 1.042,10.764c1.543,16.05 3.318,25.078 5.324,27.084c2.161,2.16 4.63,3.164 7.408,3.009c2.469,-0.154 4.977,-1.157 7.523,-3.009c2.546,-1.852 4.514,-3.704 5.903,-5.556c0.152,-0.202 0.311,-0.391 0.478,-0.567c-0.145,-0.993 -0.227,-2.038 -0.246,-3.137c-0.155,-6.018 1.967,-13.194 6.365,-21.528c4.399,-8.333 9.684,-15.741 15.857,-22.222c6.173,-6.482 11.729,-10.417 16.667,-11.806c4.321,-1.389 8.256,-1.003 11.806,1.157c2.006,1.235 3.781,3.087 5.324,5.556l0,-0.463c0.772,-1.235 1.813,-2.122 3.125,-2.662c1.312,-0.54 2.624,-0.502 3.935,0.116c1.312,0.617 2.277,1.62 2.894,3.009c0.617,1.389 0.617,2.701 -0,3.935c-2.161,5.402 -4.553,10.88 -7.176,16.436c-3.395,8.796 -5.594,16.358 -6.597,22.685c-1.004,6.328 -0.502,10.417 1.504,12.269c2.161,1.543 4.784,1.852 7.871,0.926c3.086,-0.926 6.096,-2.276 9.028,-4.051c2.932,-1.775 5.98,-4.09 9.143,-6.945c3.164,-2.855 5.826,-5.478 7.987,-7.87c1.786,-1.978 3.362,-3.825 4.727,-5.539c3.465,-6.757 8.371,-13.399 14.717,-19.925c8.18,-8.41 15.356,-12.615 21.529,-12.615c1.543,-0 2.855,0.54 3.935,1.62c1.08,1.08 1.62,2.353 1.62,3.819c0,1.466 -0.54,2.74 -1.62,3.82c-1.08,1.08 -2.392,1.62 -3.935,1.62c-2.933,0 -7.717,3.357 -14.353,10.07c-4.836,4.892 -8.688,10.01 -11.557,15.353c-0.176,0.659 -0.49,1.289 -0.943,1.893l-0.074,0.095c-0.654,1.343 -1.246,2.7 -1.778,4.071c-2.777,7.254 -2.546,12.501 0.695,15.741c6.636,3.704 21.837,-10.802 45.602,-43.519c3.241,-26.698 11.575,-55.634 25.001,-86.807c13.426,-31.173 26.004,-51.699 37.732,-61.575c6.482,-5.402 12.346,-7.099 17.593,-5.093c2.778,1.235 4.63,3.395 5.556,6.482c2.778,9.413 -3.28,28.781 -18.172,58.103c-14.892,29.321 -32.832,58.643 -53.82,87.964c-1.698,2.315 -2.933,4.013 -3.704,5.093c-1.235,11.728 -1.003,21.528 0.694,29.399c2.161,9.568 6.405,15.2 12.732,16.898c2.006,0.772 4.128,1.042 6.366,0.81c2.238,-0.231 4.282,-0.579 6.134,-1.042c1.852,-0.462 3.781,-1.273 5.787,-2.43c2.007,-1.158 3.743,-2.238 5.209,-3.241c1.466,-1.003 2.971,-2.238 4.514,-3.704c1.543,-1.466 2.778,-2.7 3.704,-3.703c0.926,-1.004 1.851,-2.122 2.777,-3.357c0.926,-1.235 1.544,-2.045 1.852,-2.431c0.309,-0.385 0.54,-0.655 0.695,-0.81l-0,-0.231c0.356,-0.475 0.752,-0.876 1.189,-1.203c0.858,-4.673 2.815,-9.905 5.871,-15.696c4.398,-8.333 9.684,-15.741 15.857,-22.222c6.173,-6.482 11.728,-10.417 16.667,-11.806c4.321,-1.389 8.256,-1.003 11.806,1.157c2.006,1.235 3.781,3.087 5.324,5.556l-0,-0.463c0.771,-1.235 1.813,-2.122 3.125,-2.662c1.312,-0.54 2.623,-0.502 3.935,0.116c1.312,0.617 2.276,1.62 2.894,3.009c0.617,1.389 0.617,2.701 -0,3.935c-2.161,5.402 -4.553,10.88 -7.176,16.436c-3.396,8.796 -5.595,16.358 -6.598,22.685c-1.003,6.328 -0.501,10.417 1.505,12.269c2.16,1.543 4.784,1.852 7.87,0.926c3.087,-0.926 6.096,-2.276 9.028,-4.051c2.933,-1.775 5.98,-4.09 9.144,-6.945c3.137,-2.83 5.78,-5.433 7.931,-7.809c0.882,-3.994 1.749,-7.833 2.602,-11.52l11.111,-48.38c0.463,-1.389 1.312,-2.469 2.546,-3.241c1.235,-0.772 2.585,-1.003 4.051,-0.694c1.466,0.308 2.585,1.118 3.357,2.43c0.771,1.312 1.003,2.662 0.694,4.051c-0.308,0.617 -3.626,14.892 -9.954,42.825c2.315,-3.704 4.862,-7.33 7.639,-10.88c2.778,-3.549 6.212,-7.639 10.302,-12.269c4.089,-4.629 8.526,-8.603 13.31,-11.921c4.784,-3.318 9.414,-5.517 13.889,-6.597c6.636,-1.544 12.655,-0.463 18.056,3.24c3.395,2.315 5.324,6.173 5.787,11.575c0.024,0.277 0.042,0.562 0.056,0.853c5.98,-2.74 14.46,-4.839 25.936,-3.946c16.567,1.289 25.141,1.93 31.682,2.197c5.395,0.22 9.912,3.89 12.723,4.677c13.224,3.707 21.197,3.888 29.222,-2.594c0.164,-0.123 0.33,-0.235 0.498,-0.338c1.985,-8.396 4.193,-17.432 6.623,-27.103c0.308,-1.389 1.118,-2.469 2.43,-3.241c1.312,-0.772 2.662,-0.964 4.051,-0.579c1.389,0.386 2.469,1.196 3.241,2.431c0.772,1.235 1.003,2.623 0.694,4.167c-5.401,21.759 -10.031,41.976 -13.889,60.649c6.791,-13.272 14.391,-23.573 22.802,-30.903c8.41,-7.331 17.322,-10.379 26.736,-9.144c1.543,0.154 2.778,0.81 3.704,1.968c0.926,1.157 1.312,2.469 1.157,3.935c-0.154,1.466 -0.848,2.662 -2.083,3.588c-1.235,0.926 -2.546,1.312 -3.935,1.157c-7.099,-0.926 -14.237,2.199 -21.413,9.375c-7.176,7.177 -13.426,16.359 -18.75,27.547c-5.324,11.189 -9.915,23.496 -13.773,36.922c-0.618,2.469 -2.161,3.781 -4.63,3.935c-0.154,0.155 -0.309,0.232 -0.463,0.232c-2.315,-0 -3.935,-1.003 -4.861,-3.009c-2.826,-5.77 0.188,-28.295 9.041,-67.577c-7.206,2.558 -15.525,2.749 -24.958,0.572c0.772,5.401 0.54,12.963 -0.694,22.686c-0.618,4.475 -2.662,10.262 -6.135,17.361c-3.472,7.099 -7.755,12.192 -12.847,15.278c-2.932,1.852 -6.019,2.778 -9.26,2.778c-1.852,-0 -3.626,-0.309 -5.324,-0.926c-10.802,-3.704 -15.046,-15.278 -12.732,-34.723c0.155,-1.08 0.232,-1.775 0.232,-2.083c0.463,-4.476 2.083,-9.53 4.861,-15.163c2.192,-4.445 5.057,-8.529 8.594,-12.254c-3.962,-0.314 -8.496,-0.672 -13.382,-1.052c-15.376,-1.197 -23.657,4.287 -26.737,6.977l-0.037,0.165c-1.543,6.79 -4.321,14.661 -8.334,23.611c-4.012,8.951 -7.137,15.433 -9.375,19.445c-2.238,4.013 -3.897,6.868 -4.977,8.565c-5.401,8.797 -10.069,14.777 -14.005,17.94c-3.935,3.164 -7.446,3.82 -10.532,1.968c-4.63,-2.469 -6.173,-7.485 -4.63,-15.047c1.698,-8.179 6.52,-18.248 14.468,-30.209c7.947,-11.96 17.091,-22.569 27.431,-31.829c0.309,-1.389 0.54,-2.701 0.694,-3.935c0.463,-4.476 0.077,-7.099 -1.157,-7.871c-2.624,-2.006 -5.787,-2.546 -9.491,-1.62c-6.79,1.543 -14.275,6.906 -22.454,16.088c-8.179,9.182 -14.507,17.709 -18.982,25.579c-4.167,7.408 -10.648,30.672 -19.445,69.793c-8.796,39.121 -14.12,66.861 -15.972,83.219c-0.155,1.235 -0.733,2.315 -1.736,3.241c-1.004,0.926 -2.2,1.389 -3.588,1.389c-0.772,0 -1.467,-0.116 -2.084,-0.347c-0.617,-0.232 -1.157,-0.54 -1.62,-0.926c-0.463,-0.386 -0.849,-0.849 -1.158,-1.389c-0.308,-0.54 -0.463,-1.119 -0.463,-1.736c-0.926,-5.71 2.122,-27.778 9.144,-66.205c4.421,-24.193 8.582,-45.665 12.482,-64.41c-0.804,0.66 -1.608,1.296 -2.412,1.909c-3.241,2.469 -6.945,4.63 -11.112,6.481c-4.166,1.852 -8.102,2.778 -11.805,2.778c-3.704,0 -7.099,-0.926 -10.186,-2.778c-4.629,-2.777 -7.021,-7.793 -7.176,-15.046c-10.34,12.654 -20.139,17.747 -29.399,15.278c-4.37,-1.249 -7.504,-3.555 -9.4,-6.918c-0.525,0.567 -1.095,1.175 -1.711,1.825c-2.778,2.932 -5.633,5.479 -8.565,7.639c-2.932,2.161 -6.559,4.128 -10.88,5.903c-4.321,1.775 -8.642,2.662 -12.963,2.662c-2.932,0 -5.864,-0.386 -8.796,-1.157c-10.494,-2.932 -17.207,-11.266 -20.14,-25.001c-1.08,-4.784 -1.62,-10.185 -1.62,-16.204c-11.574,14.815 -21.412,25.001 -29.514,30.556c-8.102,5.556 -15.24,6.173 -21.413,1.852c-0.154,0 -0.308,-0.154 -0.463,-0.463c-3.813,-3.326 -5.984,-7.462 -6.513,-12.408c-1.996,1.814 -3.991,3.48 -5.987,5.001c-3.241,2.469 -6.945,4.63 -11.111,6.481c-4.167,1.852 -8.102,2.778 -11.806,2.778c-3.704,0 -7.099,-0.926 -10.185,-2.778c-4.63,-2.777 -7.022,-7.793 -7.177,-15.046c-10.339,12.654 -20.139,17.747 -29.398,15.278c-2.264,-0.647 -4.196,-1.577 -5.796,-2.791c-1.796,1.845 -3.953,3.624 -6.473,5.337c-3.858,2.624 -7.948,4.09 -12.269,4.399c-5.864,0.462 -11.111,-1.544 -15.741,-6.019c-1.852,-1.852 -3.356,-4.707 -4.514,-8.565c-1.157,-3.858 -1.967,-7.408 -2.43,-10.648c-0.463,-3.241 -0.926,-8.102 -1.389,-14.584c-1.543,-16.821 -3.395,-26.235 -5.556,-28.241c-4.167,2.469 -13.812,18.287 -28.936,47.454c-9.105,17.593 -15.702,29.36 -19.792,35.302c-4.089,5.941 -7.909,8.912 -11.458,8.912c-0.309,0 -0.617,0 -0.926,0c-3.55,-0.463 -5.864,-2.778 -6.945,-6.945c-1.951,-7.108 0.063,-24.162 6.044,-51.166c-1.542,1.385 -3.286,2.931 -5.233,4.638c-5.633,4.938 -11.15,9.375 -16.552,13.31c-5.401,3.936 -11.458,7.485 -18.171,10.649c-6.713,3.163 -12.616,4.745 -17.709,4.745c-4.784,0 -8.874,-1.312 -12.269,-3.935c-2.051,-1.596 -3.692,-3.491 -4.92,-5.686c-1.082,1.24 -2.424,2.709 -4.024,4.406c-2.546,2.701 -5.401,5.016 -8.565,6.945c-3.164,1.929 -6.366,3.125 -9.607,3.588c-0.617,-0 -1.311,-0 -2.083,-0c-4.167,-0 -7.871,-1.389 -11.111,-4.167c-4.013,-3.55 -6.906,-10.147 -8.681,-19.792c-1.571,-8.54 -2.296,-17.019 -2.173,-25.439c-1.075,1.119 -2.319,2.384 -3.73,3.795c-3.241,3.241 -6.482,6.096 -9.722,8.565c-3.241,2.469 -6.945,4.63 -11.112,6.481c-4.166,1.852 -8.102,2.778 -11.805,2.778c-3.704,0 -7.099,-0.926 -10.186,-2.778c-4.63,-2.777 -7.022,-7.793 -7.176,-15.046c-10.34,12.654 -20.139,17.747 -29.399,15.278c-7.561,-2.161 -11.419,-7.485 -11.574,-15.973c-0.154,-6.018 1.968,-13.194 6.366,-21.528c4.398,-8.333 9.684,-15.741 15.857,-22.222c6.173,-6.482 11.728,-10.417 16.667,-11.806c4.321,-1.389 8.256,-1.003 11.806,1.157c2.006,1.235 3.78,3.087 5.324,5.556l-0,-0.463c0.771,-1.235 1.813,-2.122 3.125,-2.662c1.312,-0.54 2.623,-0.502 3.935,0.116c1.312,0.617 2.276,1.62 2.894,3.009c0.617,1.389 0.617,2.701 -0,3.935c-2.161,5.402 -4.553,10.88 -7.176,16.436c-3.396,8.796 -5.595,16.358 -6.598,22.685c-1.003,6.328 -0.501,10.417 1.505,12.269c2.16,1.543 4.784,1.852 7.87,0.926c3.087,-0.926 6.096,-2.276 9.028,-4.051c2.932,-1.775 5.98,-4.09 9.144,-6.945c3.164,-2.855 5.826,-5.478 7.986,-7.87c2.161,-2.392 4.013,-4.591 5.556,-6.597c0.671,-0.783 1.484,-1.343 2.439,-1.68Zm-86.7,137.33c3.087,0.926 4.167,3.01 3.241,6.25c-0.926,2.932 -2.855,4.321 -5.787,4.167l-1.389,-0.463c-71.761,-23.766 -123.459,-62.424 -155.096,-115.974c-0.617,-1.081 -0.771,-2.161 -0.463,-3.241c0.309,-1.08 0.888,-2.006 1.737,-2.778c0.848,-0.771 1.813,-1.234 2.893,-1.389c17.439,-3.858 34.877,-10.494 52.316,-19.908c17.439,-9.413 33.643,-20.447 48.612,-33.102c5.093,-4.321 9.877,-8.796 14.352,-13.426c4.475,-4.63 8.797,-9.684 12.963,-15.163c4.167,-5.478 7.716,-11.188 10.649,-17.129c2.932,-5.942 5.285,-11.999 7.06,-18.172c1.775,-6.173 2.623,-12.616 2.546,-19.329c-0.077,-6.713 -1.196,-13.311 -3.356,-19.792c-2.161,-7.253 -5.71,-13.503 -10.649,-18.751c-4.938,-5.247 -10.687,-9.298 -17.245,-12.153c-6.559,-2.854 -13.311,-4.976 -20.255,-6.365c-6.945,-1.389 -14.198,-2.084 -21.76,-2.084c-17.13,0 -34.761,2.508 -52.894,7.524c-18.133,5.015 -35.225,12.075 -51.275,21.18c-16.049,9.106 -30.633,20.41 -43.75,33.913c-13.118,13.503 -22.995,28.203 -29.63,44.098c-0.926,2.006 -2.393,3.087 -4.399,3.241c-2.006,0.154 -3.703,-0.502 -5.092,-1.968c-1.389,-1.466 -1.621,-3.202 -0.695,-5.208c5.864,-13.735 13.966,-26.582 24.306,-38.542c10.34,-11.961 21.567,-22.223 33.681,-30.788c12.115,-8.565 25.348,-16.165 39.7,-22.801c6.636,-3.087 13.889,-5.942 21.76,-8.565c7.87,-2.624 16.32,-4.977 25.347,-7.061c9.028,-2.083 18.133,-3.549 27.316,-4.398c9.182,-0.849 18.287,-1.08 27.315,-0.694c9.028,0.385 17.516,1.852 25.464,4.398c7.947,2.546 15.123,6.018 21.528,10.417c6.404,4.398 11.767,10.339 16.088,17.824c4.321,7.485 7.099,16.166 8.333,26.042c1.544,12.346 0.541,24.653 -3.009,36.922c-3.549,12.269 -9.028,23.535 -16.435,33.797c-7.408,10.263 -16.166,20.024 -26.274,29.283c-10.108,9.26 -21.027,17.477 -32.755,24.653c-11.729,7.176 -23.573,13.388 -35.533,18.635c-11.96,5.247 -23.573,9.337 -34.839,12.269c30.093,47.531 78.551,82.409 145.373,104.631Zm-153.012,-270.375c0.463,-2.161 1.659,-3.588 3.588,-4.283c1.929,-0.694 3.704,-0.501 5.324,0.579c1.621,1.08 2.277,2.701 1.968,4.861c-10.185,59.878 -25.386,149.617 -45.603,269.218c-0.463,2.161 -1.659,3.588 -3.588,4.283c-1.929,0.694 -3.704,0.501 -5.324,-0.579c-1.62,-1.08 -2.276,-2.701 -1.968,-4.861c10.186,-59.878 25.387,-149.617 45.603,-269.218Zm249.179,268.349c0,-2.331 0.108,-5.278 0.326,-8.843c0.217,-3.564 0.364,-6.923 0.44,-10.076c0.076,-3.153 -0.011,-5.963 -0.262,-8.431c-0.202,-2.742 1.06,-4.455 3.786,-5.141c3,-0.685 4.911,0.137 5.734,2.468c0.201,0.411 0.266,0.822 0.194,1.234c0.379,3.29 0.4,8.225 0.062,14.805c-0.338,6.581 -0.527,10.762 -0.567,12.544c0.073,1.919 -0.701,3.393 -2.321,4.421c-1.621,1.029 -3.274,1.268 -4.96,0.72c-1.685,-0.548 -2.496,-1.782 -2.432,-3.701Zm837.752,-91.295c1.466,-0.231 2.816,0.078 4.051,0.926c1.234,0.849 1.967,2.007 2.199,3.473c0.231,1.466 -0.039,2.816 -0.81,4.051c-0.463,0.617 -1.042,1.311 -1.736,2.083c-0.695,0.772 -1.737,1.852 -3.125,3.241c-1.389,1.389 -3.087,2.585 -5.093,3.588c-2.006,1.003 -4.013,1.582 -6.019,1.736c-4.012,0.463 -7.716,-0.849 -11.111,-3.935c-1.235,-1.081 -2.199,-2.855 -2.894,-5.324c-0.694,-2.47 -1.504,-6.559 -2.43,-12.269c-2.006,-11.729 -3.781,-18.596 -5.324,-20.602c-1.389,1.234 -5.402,6.481 -12.038,15.741c-1.697,2.469 -2.97,4.321 -3.819,5.555c-0.849,1.235 -2.084,2.932 -3.704,5.093c-1.62,2.16 -2.894,3.742 -3.819,4.745c-0.926,1.003 -2.122,2.277 -3.588,3.82c-1.467,1.543 -2.778,2.623 -3.936,3.241c-1.157,0.617 -2.392,1.157 -3.704,1.62c-1.311,0.463 -2.584,0.617 -3.819,0.463c-1.235,-0.154 -2.546,-0.54 -3.935,-1.157c-2.778,-1.544 -4.437,-5.17 -4.977,-10.88c-0.54,-5.71 -0.27,-14.275 0.81,-25.695c0.772,-13.118 1.003,-21.76 0.694,-25.927c-0.326,-4.404 -0.241,-7.881 0.503,-10.406c0.677,-2.301 2.218,-3 4.378,-3c2.161,0 3.488,1.038 4.57,2.668c1.63,2.456 1.121,6.032 1.429,11.896c0.309,5.864 0,14.352 -0.926,25.463c-0.926,14.044 -1.08,22.686 -0.463,25.927c2.315,-1.544 7.485,-8.102 15.51,-19.677c5.401,-7.561 9.568,-12.886 12.5,-15.972c2.932,-3.087 5.864,-4.63 8.797,-4.63c2.006,0 3.819,0.618 5.439,1.852c1.621,1.235 2.894,2.662 3.82,4.283c0.926,1.62 1.852,4.012 2.778,7.176c0.926,3.163 1.582,5.748 1.967,7.754c0.386,2.007 0.888,5.016 1.505,9.028c1.08,6.636 1.929,10.572 2.546,11.806c0.772,0.617 1.467,0.849 2.084,0.695c2.623,-0.309 5.401,-2.392 8.333,-6.251c0.772,-1.234 1.891,-1.967 3.357,-2.199Zm-286.884,16.243c3.241,-3.395 7.137,-9.028 11.69,-16.898c4.552,-7.871 8.603,-15.973 12.153,-24.306c-5.247,6.481 -9.954,13.117 -14.121,19.907c-5.401,8.797 -8.642,15.896 -9.722,21.297Zm103.323,-36.776c1.697,-13.117 1.543,-21.605 -0.463,-25.463c-1.389,-0.463 -2.701,-1.081 -3.935,-1.852c-4.322,0.771 -8.643,4.244 -12.964,10.417c-4.321,6.173 -6.636,11.728 -6.944,16.667c-0.155,0.463 -0.232,1.234 -0.232,2.314c-0.926,4.784 -1.041,9.607 -0.347,14.468c0.695,4.862 2.585,7.832 5.671,8.913c1.698,0.617 3.55,0.385 5.556,-0.695c2.161,-1.543 4.36,-4.09 6.597,-7.639c2.238,-3.549 3.936,-6.867 5.093,-9.954c1.158,-3.086 1.813,-5.478 1.968,-7.176Zm-390.134,-17.392c0.309,-0.771 0.694,-1.697 1.157,-2.777c-0.617,-0.772 -1.08,-1.621 -1.388,-2.547c-0.618,-3.549 -1.852,-5.864 -3.704,-6.944c-0.309,-0.309 -0.695,-0.463 -1.158,-0.463c-0.463,-0 -1.003,0.077 -1.62,0.231c-5.71,1.698 -12.385,7.948 -20.024,18.751c-7.639,10.802 -11.381,19.676 -11.227,26.62c0,2.933 1.235,4.784 3.704,5.556c4.476,1.235 9.838,-1.968 16.088,-9.607c6.25,-7.639 12.308,-17.245 18.172,-28.82Zm207.643,0c0.308,-0.771 0.694,-1.697 1.157,-2.777c-0.617,-0.772 -1.08,-1.621 -1.389,-2.547c-0.617,-3.549 -1.852,-5.864 -3.704,-6.944c-0.308,-0.309 -0.694,-0.463 -1.157,-0.463c-0.463,-0 -1.003,0.077 -1.62,0.231c-5.71,1.698 -12.385,7.948 -20.024,18.751c-7.639,10.802 -11.381,19.676 -11.227,26.62c0,2.933 1.235,4.784 3.704,5.556c4.475,1.235 9.838,-1.968 16.088,-9.607c6.25,-7.639 12.307,-17.245 18.172,-28.82Zm-528.051,-19.22c0.308,-0.771 0.694,-1.697 1.157,-2.777c-0.617,-0.772 -1.08,-1.621 -1.389,-2.547c-0.617,-3.549 -1.852,-5.864 -3.704,-6.944c-0.308,-0.309 -0.694,-0.463 -1.157,-0.463c-0.463,-0 -1.003,0.077 -1.62,0.231c-5.71,1.698 -12.385,7.948 -20.024,18.751c-7.639,10.802 -11.381,19.676 -11.227,26.62c0,2.933 1.235,4.785 3.704,5.556c4.475,1.235 9.838,-1.968 16.088,-9.607c6.25,-7.639 12.307,-17.245 18.172,-28.82Zm235.453,-118.976c-7.562,9.722 -15.548,25.463 -23.959,47.223c-8.411,21.759 -16.165,45.525 -23.264,71.297c12.037,-19.599 22.685,-38.041 31.945,-55.325c9.259,-17.284 16.319,-32.369 21.181,-45.255c4.861,-12.886 6.366,-21.104 4.514,-24.654c-0.309,-0.308 -0.926,-0.54 -1.852,-0.694c-2.006,-0 -4.861,2.469 -8.565,7.408Zm252.088,-3.936c-9.26,7.716 -19.445,23.612 -30.556,47.686c-11.112,24.075 -19.368,47.995 -24.769,71.761c19.753,-28.859 35.263,-55.171 46.528,-78.937c11.266,-23.766 16.204,-38.349 14.815,-43.751c-1.543,0 -3.549,1.081 -6.018,3.241Zm-419.253,86.801c2.469,-4.784 5.015,-9.877 7.639,-15.278l-3.704,-0c-1.389,5.092 -2.7,10.185 -3.935,15.278Zm38.195,-99.308c-8.333,5.556 -18.75,29.939 -31.25,73.15c1.234,0.154 3.163,0.308 5.787,0.463c9.413,-19.445 16.589,-35.919 21.528,-49.422c4.938,-13.504 6.559,-21.799 4.861,-24.885c0,0.154 -0.309,0.386 -0.926,0.694Z" style="fill-rule:nonzero;"/></svg>